<svg height="24" viewBox="0 0 24 24" width="24" xmlns="http://www.w3.org/2000/svg"><g fill="none" fill-rule="evenodd"><path d="m0 0h24v24h-24z" fill-rule="nonzero"/><path d="m16.2017 2.07372c1.0402.04953 1.9582.27202 2.6736.53561.6748.24861 1.2794.57467 1.6099.9052.3305.33052.6566.93507.9052 1.60988.2636.71545.4861 1.63346.5356 2.67358.0853 1.79017-.3451 3.92741-1.9191 5.96861l-.01935.04765-1.43625 2.87545c-.247.494-.8477.6942-1.3417.4473-.2596-.1299-.4381-.3574-.5132-.6158-1.2597.6365-2.6869 1.0394-4.1405 1.1779l-.5103178.0423704-.5828083.0385448-.9761879.0529857-1.052006.0503991c-.50295.0237-1.01387.0477-1.50798.0737-.04895.6171-.10825 1.1875-.18378 1.6533-.0545.3361-.12614.6757-.23127.9519-.19085.5014-.59636.9228-1.16848.9228-.752384 0-1.4364096-.530944-1.99343744-1.0568704l-.26765929-.2600638-.37942202-.3815219c-.56477196-.5800608-1.18790125-1.3149306-1.18790125-2.1299439 0-.4603.26758-.7575.43641-.8965.2972325-.2448.68134313-.360675 1.06204219-.4369359l.37621781-.0663641c.46582-.0755 1.03625-.1348 1.6533-.1838l.14131288-2.8961672.03579304-.6398376.03854872-.5828568c.01342896-.1830624.02749736-.3540384.04238536-.5103384.13845-1.45368.54139-2.88081 1.17787-4.14051-.25835-.07507-.48585-.25354-.61566-.51315-.24699-.49398-.04676-1.09466.44722-1.34165l2.82841-1.41421c.031-.01551.0625-.02925.0942-.04128 2.0413-1.5742 4.1788-2.00464 5.969-1.91938zm.748 4.9764c-.5858-.58579-1.5355-.58579-2.1213 0s-.5858 1.53554 0 2.12132c.5858.58579 1.5355.58579 2.1213 0 .5858-.58578.5858-1.53553 0-2.12132z" fill="#09244b"/></g></svg>